<?xml version="1.0" encoding="UTF-8" standalone="no"?>
<!-- Created with Inkscape (http://www.inkscape.org/) -->

<svg
   xmlns:dc="http://purl.org/dc/elements/1.1/"
   xmlns:cc="http://creativecommons.org/ns#"
   xmlns:rdf="http://www.w3.org/1999/02/22-rdf-syntax-ns#"
   xmlns:svg="http://www.w3.org/2000/svg"
   xmlns="http://www.w3.org/2000/svg"
   xmlns:sodipodi="http://sodipodi.sourceforge.net/DTD/sodipodi-0.dtd"
   xmlns:inkscape="http://www.inkscape.org/namespaces/inkscape"
   version="1.1"
   id="svg64"
   xml:space="preserve"
   width="872.0885"
   height="348.23306"
   viewBox="0 0 872.0885 348.23307"
   sodipodi:docname="ChS_logo.svg"
   inkscape:version="0.92.4 5da689c313, 2019-01-14"><metadata
     id="metadata70"><rdf:RDF><cc:Work
         rdf:about=""><dc:format>image/svg+xml</dc:format><dc:type
           rdf:resource="http://purl.org/dc/dcmitype/StillImage" /><dc:title></dc:title></cc:Work></rdf:RDF></metadata><defs
     id="defs68"><clipPath
       clipPathUnits="userSpaceOnUse"
       id="clipPath84"><path
         d="m 4515.69,1097.19 c -16.45,0 -34.45,-0.8 -57.95,-3.15 V 900.59 c 105.7,5.48 160.55,35.269 160.55,101.79 0,59.55 -32.95,94.81 -102.6,94.81 m -124.55,50.9 c 45.41,5.48 101.03,7.83 136.27,7.83 115.91,0 158.96,-63.42 160.58,-146.45 -1.62,-61.868 -28.2,-104.958 -85.41,-133.161 l 112.8,-202.071 -73.62,-6.289 -101.03,186.422 c -24.28,-6.25 -52.48,-10.973 -82.99,-14.883 v -165.25 h -66.6 v 473.852 m -208.6,94.01 c 0,25.84 -14.9,40.73 -37.61,40.73 -23.44,0 -38.32,-14.89 -38.32,-40.73 0,-27.41 16.42,-41.52 38.32,-41.52 23.53,0 37.61,14.89 37.61,41.52 m -108,0 c 0,41.51 32.87,69.7 71.97,69.7 39.94,0 69.71,-26.62 69.71,-69.7 0,-39.17 -31.35,-70.48 -71.29,-70.48 -39.09,0 -70.39,28.17 -70.39,70.48 m -6.27,-377.549 139.33,7.051 -10.97,35.269 -55.59,178.559 -58.67,-179.36 -14.1,-41.519 m 113.47,291.369 161.35,-481.682 h -72.05 l -45.43,140.973 -176.93,-10.172 -43.07,-130.801 h -68.16 l 172.3,478.562 71.99,3.12 m -452.38,-235.76 175.47,-245.922 -74.4,-7.828 -174.7,245.149 166.07,242.011 h 75.22 L 3729.36,920.16 m -75.41,233.41 V 674.238 h -67.38 v 479.332 h 67.38 m -482.25,0 h 350.71 v -58.73 H 3381.16 V 674.238 h -67.39 V 1094.84 H 3171.7 v 58.73 M 2797.84,674.238 h -65 V 1152.8 l 65.79,3.12 197.34,-296.842 49.35,-85.367 -3.13,89.301 v 290.558 h 65 V 675.02 l -63.44,-4.711 -197.36,296.082 -53.24,87.709 4.69,-90.061 V 674.238 m -138.48,479.332 v -58.73 H 2445.54 V 946.801 l 177.77,7.828 v -58.731 l -177.77,-7.046 V 733.75 h 226.33 v -59.512 h -293.7 v 479.332 h 281.19 M 2014.19,1092.5 V 733.75 h 75.18 c 129.25,0 167.61,72.871 167.61,182.5 0,137.07 -63.45,179.35 -178.59,179.35 -22.7,0 -42.27,-1.56 -64.2,-3.1 m -67.37,57.94 c 46.2,1.56 90.85,3.91 138.64,3.91 171.52,0 241.23,-86.15 241.23,-228.709 0,-142.563 -54.83,-251.403 -240.45,-251.403 h -139.42 v 476.202 m -134.88,3.13 h 65 V 831.66 c 0,-133.129 -109.63,-164.469 -184.83,-164.469 -68.9,0 -177.01,23.469 -177.01,158.2 v 328.179 h 66.58 V 847.34 c 0,-104.961 49.34,-120.621 116.68,-120.621 68.95,0 113.58,28.961 113.58,125.312 v 301.539 m -701.45,0 h 345.56 v -58.73 H 1317.37 V 674.238 h -67.4 v 420.602 h -139.48 v 58.73 M 1005.45,795.621 c 0,45.449 -50.137,73.641 -96.329,101.82 -54.844,34.469 -109.648,68.161 -109.648,135.509 0,77.54 56.375,127.68 139.386,127.68 46.231,0 88.501,-7.83 130.031,-38.4 l -38.38,-52.45 c -25.85,24.26 -53.252,32.89 -89.28,32.89 -44.648,0 -72.859,-22.73 -72.859,-60.33 0,-38.36 39.961,-63.449 80.699,-89.27 59.52,-36.019 126.09,-72.058 126.09,-152.761 0,-86.149 -75.172,-133.118 -160.57,-133.118 -46.219,0 -91.629,8.61 -131.582,38.379 l 35.262,53.239 c 32.109,-26.618 65.773,-33.668 99.457,-33.668 46.218,0 87.723,28.199 87.723,70.48 m 2914.63,611.709 c 0,45.41 -50.13,73.62 -96.35,101.81 -54.82,34.46 -109.64,68.14 -109.64,135.5 0,77.54 56.4,127.66 139.39,127.66 46.23,0 88.54,-7.81 130.04,-38.37 l -38.38,-52.46 c -25.86,24.25 -53.26,32.87 -89.31,32.87 -44.61,0 -72.84,-22.7 -72.84,-60.31 0,-38.38 39.96,-63.46 80.69,-89.29 59.53,-36.03 126.11,-72.04 126.11,-152.73 0,-86.13 -75.19,-133.15 -160.59,-133.15 -46.21,0 -91.64,8.62 -131.58,38.39 l 35.24,53.28 c 32.13,-26.66 65.8,-33.71 99.47,-33.71 46.21,0 87.75,28.21 87.75,70.51 m -449.96,301.51 c -16.44,0 -34.45,-0.75 -57.95,-3.12 v -193.45 c 105.74,5.47 160.59,35.25 160.59,101.83 0,59.53 -32.93,94.74 -102.64,94.74 m -124.51,50.93 c 45.39,5.49 101.04,7.83 136.29,7.83 115.9,0 158.96,-63.43 160.55,-146.45 -1.59,-61.86 -28.19,-104.97 -85.39,-133.16 l 112.81,-202.06 -73.63,-6.28 -101.04,186.41 c -24.3,-6.26 -52.48,-10.96 -83.03,-14.88 v -165.25 h -66.56 v 473.84 m -73.46,5.49 v -58.75 h -213.84 v -148.03 l 177.83,7.84 v -58.76 l -177.83,-7.03 v -155.09 h 226.38 v -59.51 h -293.71 v 479.33 h 281.17 m -415.73,-205.97 2.34,90.06 -33.67,-92.43 -108.89,-270.99 -56.39,-5.49 -114.35,273.34 -32.87,90.08 2.34,-90.08 v -267.85 h -64.22 v 478.56 l 72.05,3.11 138.62,-328.17 27.43,-76.76 26.62,78.32 134.74,326.61 70.48,-3.11 v -478.56 h -64.23 v 273.36 m -735.88,205.97 h 67.34 v -419.82 h 204.43 v -59.51 h -271.77 v 479.33 m -323.31,-289.02 139.44,7.05 -10.96,35.27 -55.63,178.55 -58.71,-179.37 -14.14,-41.5 m 113.58,291.36 161.37,-481.67 h -72.09 l -45.39,140.95 -177.04,-10.16 -43.08,-130.79 h -68.13 l 172.31,478.56 72.05,3.11 m -296.61,-2.34 v -479.33 h -67.34 v 219.28 l -220.1,-7.8 v -211.48 h -67.34 v 479.33 h 67.34 v -209.92 l 220.1,9.4 v 200.52 h 67.34 m -425.74,-440.18 c -35.99,-27.42 -97.11,-46.22 -151.16,-46.22 -136.273,0 -208.316,80.69 -208.316,248.29 0,128.46 72.043,245.15 218.496,245.15 68.15,0 115.16,-20.37 144.91,-46.2 l -40.73,-54.05 c -27.4,28.97 -59.51,40.74 -105.74,40.74 -97.111,0 -147.229,-72.86 -147.229,-183.28 0,-128.47 51.692,-191.11 146.449,-191.11 36.84,0 76.76,13.29 111.99,36.8 l 31.33,-50.12"
         id="path82"
         inkscape:connector-curvature="0" /></clipPath></defs><sodipodi:namedview
     pagecolor="#ffffff"
     bordercolor="#666666"
     borderopacity="1"
     objecttolerance="10"
     gridtolerance="10"
     guidetolerance="10"
     inkscape:pageopacity="0"
     inkscape:pageshadow="2"
     inkscape:window-width="1366"
     inkscape:window-height="768"
     id="namedview66"
     showgrid="false"
     inkscape:zoom="0.2805868"
     inkscape:cx="632.41699"
     inkscape:cy="-220.96828"
     inkscape:window-x="0"
     inkscape:window-y="0"
     inkscape:window-maximized="1"
     inkscape:current-layer="g72"
     fit-margin-left="0"
     fit-margin-top="100"
     fit-margin-right="0"
     fit-margin-bottom="100" /><g
     id="g72"
     inkscape:groupmode="layer"
     inkscape:label="ink_ext_XXXXXX"
     transform="matrix(1.3333333,0,0,-1.3333333,243.37119,336.30666)"><g
       id="g74"
       transform="scale(0.1)"><path
         d="m 4515.69,1097.19 c -16.45,0 -34.45,-0.8 -57.95,-3.15 V 900.59 c 105.7,5.48 160.55,35.269 160.55,101.79 0,59.55 -32.95,94.81 -102.6,94.81 m -124.55,50.9 c 45.41,5.48 101.03,7.83 136.27,7.83 115.91,0 158.96,-63.42 160.58,-146.45 -1.62,-61.868 -28.2,-104.958 -85.41,-133.161 l 112.8,-202.071 -73.62,-6.289 -101.03,186.422 c -24.28,-6.25 -52.48,-10.973 -82.99,-14.883 v -165.25 h -66.6 v 473.852 m -208.6,94.01 c 0,25.84 -14.9,40.73 -37.61,40.73 -23.44,0 -38.32,-14.89 -38.32,-40.73 0,-27.41 16.42,-41.52 38.32,-41.52 23.53,0 37.61,14.89 37.61,41.52 m -108,0 c 0,41.51 32.87,69.7 71.97,69.7 39.94,0 69.71,-26.62 69.71,-69.7 0,-39.17 -31.35,-70.48 -71.29,-70.48 -39.09,0 -70.39,28.17 -70.39,70.48 m -6.27,-377.549 139.33,7.051 -10.97,35.269 -55.59,178.559 -58.67,-179.36 -14.1,-41.519 m 113.47,291.369 161.35,-481.682 h -72.05 l -45.43,140.973 -176.93,-10.172 -43.07,-130.801 h -68.16 l 172.3,478.562 71.99,3.12 m -452.38,-235.76 175.47,-245.922 -74.4,-7.828 -174.7,245.149 166.07,242.011 h 75.22 L 3729.36,920.16 m -75.41,233.41 V 674.238 h -67.38 v 479.332 h 67.38 m -482.25,0 h 350.71 v -58.73 H 3381.16 V 674.238 h -67.39 V 1094.84 H 3171.7 v 58.73 M 2797.84,674.238 h -65 V 1152.8 l 65.79,3.12 197.34,-296.842 49.35,-85.367 -3.13,89.301 v 290.558 h 65 V 675.02 l -63.44,-4.711 -197.36,296.082 -53.24,87.709 4.69,-90.061 V 674.238 m -138.48,479.332 v -58.73 H 2445.54 V 946.801 l 177.77,7.828 v -58.731 l -177.77,-7.046 V 733.75 h 226.33 v -59.512 h -293.7 v 479.332 h 281.19 M 2014.19,1092.5 V 733.75 h 75.18 c 129.25,0 167.61,72.871 167.61,182.5 0,137.07 -63.45,179.35 -178.59,179.35 -22.7,0 -42.27,-1.56 -64.2,-3.1 m -67.37,57.94 c 46.2,1.56 90.85,3.91 138.64,3.91 171.52,0 241.23,-86.15 241.23,-228.709 0,-142.563 -54.83,-251.403 -240.45,-251.403 h -139.42 v 476.202 m -134.88,3.13 h 65 V 831.66 c 0,-133.129 -109.63,-164.469 -184.83,-164.469 -68.9,0 -177.01,23.469 -177.01,158.2 v 328.179 h 66.58 V 847.34 c 0,-104.961 49.34,-120.621 116.68,-120.621 68.95,0 113.58,28.961 113.58,125.312 v 301.539 m -701.45,0 h 345.56 v -58.73 H 1317.37 V 674.238 h -67.4 v 420.602 h -139.48 v 58.73 M 1005.45,795.621 c 0,45.449 -50.137,73.641 -96.329,101.82 -54.844,34.469 -109.648,68.161 -109.648,135.509 0,77.54 56.375,127.68 139.386,127.68 46.231,0 88.501,-7.83 130.031,-38.4 l -38.38,-52.45 c -25.85,24.26 -53.252,32.89 -89.28,32.89 -44.648,0 -72.859,-22.73 -72.859,-60.33 0,-38.36 39.961,-63.449 80.699,-89.27 59.52,-36.019 126.09,-72.058 126.09,-152.761 0,-86.149 -75.172,-133.118 -160.57,-133.118 -46.219,0 -91.629,8.61 -131.582,38.379 l 35.262,53.239 c 32.109,-26.618 65.773,-33.668 99.457,-33.668 46.218,0 87.723,28.199 87.723,70.48 m 2914.63,611.709 c 0,45.41 -50.13,73.62 -96.35,101.81 -54.82,34.46 -109.64,68.14 -109.64,135.5 0,77.54 56.4,127.66 139.39,127.66 46.23,0 88.54,-7.81 130.04,-38.37 l -38.38,-52.46 c -25.86,24.25 -53.26,32.87 -89.31,32.87 -44.61,0 -72.84,-22.7 -72.84,-60.31 0,-38.38 39.96,-63.46 80.69,-89.29 59.53,-36.03 126.11,-72.04 126.11,-152.73 0,-86.13 -75.19,-133.15 -160.59,-133.15 -46.21,0 -91.64,8.62 -131.58,38.39 l 35.24,53.28 c 32.13,-26.66 65.8,-33.71 99.47,-33.71 46.21,0 87.75,28.21 87.75,70.51 m -449.96,301.51 c -16.44,0 -34.45,-0.75 -57.95,-3.12 v -193.45 c 105.74,5.47 160.59,35.25 160.59,101.83 0,59.53 -32.93,94.74 -102.64,94.74 m -124.51,50.93 c 45.39,5.49 101.04,7.83 136.29,7.83 115.9,0 158.96,-63.43 160.55,-146.45 -1.59,-61.86 -28.19,-104.97 -85.39,-133.16 l 112.81,-202.06 -73.63,-6.28 -101.04,186.41 c -24.3,-6.26 -52.48,-10.96 -83.03,-14.88 v -165.25 h -66.56 v 473.84 m -73.46,5.49 v -58.75 h -213.84 v -148.03 l 177.83,7.84 v -58.76 l -177.83,-7.03 v -155.09 h 226.38 v -59.51 h -293.71 v 479.33 h 281.17 m -415.73,-205.97 2.34,90.06 -33.67,-92.43 -108.89,-270.99 -56.39,-5.49 -114.35,273.34 -32.87,90.08 2.34,-90.08 v -267.85 h -64.22 v 478.56 l 72.05,3.11 138.62,-328.17 27.43,-76.76 26.62,78.32 134.74,326.61 70.48,-3.11 v -478.56 h -64.23 v 273.36 m -735.88,205.97 h 67.34 v -419.82 h 204.43 v -59.51 h -271.77 v 479.33 m -323.31,-289.02 139.44,7.05 -10.96,35.27 -55.63,178.55 -58.71,-179.37 -14.14,-41.5 m 113.58,291.36 161.37,-481.67 h -72.09 l -45.39,140.95 -177.04,-10.16 -43.08,-130.79 h -68.13 l 172.31,478.56 72.05,3.11 m -296.61,-2.34 v -479.33 h -67.34 v 219.28 l -220.1,-7.8 v -211.48 h -67.34 v 479.33 h 67.34 v -209.92 l 220.1,9.4 v 200.52 h 67.34 m -425.74,-440.18 c -35.99,-27.42 -97.11,-46.22 -151.16,-46.22 -136.273,0 -208.316,80.69 -208.316,248.29 0,128.46 72.043,245.15 218.496,245.15 68.15,0 115.16,-20.37 144.91,-46.2 l -40.73,-54.05 c -27.4,28.97 -59.51,40.74 -105.74,40.74 -97.111,0 -147.229,-72.86 -147.229,-183.28 0,-128.47 51.692,-191.11 146.449,-191.11 36.84,0 76.76,13.29 111.99,36.8 l 31.33,-50.12"
         style="fill:#ffffff;fill-opacity:1;fill-rule:nonzero;stroke:none"
         id="path76"
         inkscape:connector-curvature="0" /><g
         id="g78"><g
           id="g80"
           clip-path="url(#clipPath84)"><path
             d="m 936.578,668.25 122.702,122.699 0.06,-0.058 -122.625,-122.629 c -0.047,-0.012 -0.09,-0.012 -0.137,-0.012"
             style="fill:#a85eb6;fill-opacity:1;fill-rule:nonzero;stroke:none"
             id="path86"
             inkscape:connector-curvature="0" /><path
             d="m 1671.2,667.922 c -0.01,0 -0.03,0 -0.04,0 l 61.8,61.808 c 0.02,0 0.04,0.008 0.05,0.008 l -61.81,-61.816"
             style="fill:#72c8f1;fill-opacity:1;fill-rule:nonzero;stroke:none"
             id="path88"
             inkscape:connector-curvature="0" /><path
             d="m 1534.51,741.199 c -0.02,0.02 -0.03,0.039 -0.04,0.071 l 52.95,52.96 c 0.01,-0.031 0.02,-0.058 0.03,-0.089 l -52.94,-52.942 m -475.11,49.742 -0.06,0.059 15.68,15.68 c 0,-0.039 0,-0.071 0,-0.11 l -15.62,-15.629"
             style="fill:#72c8f1;fill-opacity:1;fill-rule:nonzero;stroke:none"
             id="path90"
             inkscape:connector-curvature="0" /><path
             d="m 1249.97,981.512 v 0.109 l 67.4,67.399 v -0.11 l -67.4,-67.398"
             style="fill:#72c8f1;fill-opacity:1;fill-rule:nonzero;stroke:none"
             id="path92"
             inkscape:connector-curvature="0" /><path
             d="m 1363.3,1094.84 h -0.11 l 58.73,58.73 h 0.11 l -58.73,-58.73"
             style="fill:#72c8f1;fill-opacity:1;fill-rule:nonzero;stroke:none"
             id="path94"
             inkscape:connector-curvature="0" /><path
             d="m 878.352,1344.64 c -0.016,0.02 -0.036,0.05 -0.055,0.07 l 51.031,51.03 c 0.016,-0.03 0.031,-0.05 0.047,-0.07 l -51.023,-51.03"
             style="fill:#72c8f1;fill-opacity:1;fill-rule:nonzero;stroke:none"
             id="path96"
             inkscape:connector-curvature="0" /><path
             d="m 2791.39,1105.84 -0.01,0.01 24.35,24.34 v -0.01 l -24.34,-24.34 m -340.68,341.6 v 0.04 l 51.99,51.99 0.02,-0.02 -52.01,-52.01"
             style="fill:#72c8f1;fill-opacity:1;fill-rule:nonzero;stroke:none"
             id="path98"
             inkscape:connector-curvature="0" /><path
             d="m 2378.17,692.621 v 0.02 l 19.53,19.519 0.01,-0.012 -19.54,-19.527"
             style="fill:#a85eb6;fill-opacity:1;fill-rule:nonzero;stroke:none"
             id="path100"
             inkscape:connector-curvature="0" /><path
             d="m 1946.82,943.551 v 0.039 l 67.37,67.36 v -0.03 l -67.37,-67.369"
             style="fill:#a85eb6;fill-opacity:1;fill-rule:nonzero;stroke:none"
             id="path102"
             inkscape:connector-curvature="0" /><path
             d="m 1807.19,803.922 c 0.01,0.019 0.01,0.027 0.01,0.047 l 69.74,69.73 v -0.027 l -69.75,-69.75"
             style="fill:#a85eb6;fill-opacity:1;fill-rule:nonzero;stroke:none"
             id="path104"
             inkscape:connector-curvature="0" /><path
             d="m 1811.94,1018.63 v 0.12 l 65,65 v -0.12 l -65,-65"
             style="fill:#a85eb6;fill-opacity:1;fill-rule:nonzero;stroke:none"
             id="path106"
             inkscape:connector-curvature="0" /><path
             d="m 1554.39,1285.93 h -0.11 l 59.92,59.92 v -0.11 l -59.81,-59.81 m -294.97,439.77 v 0.14 l 39.43,39.42 h 0.14 l -39.57,-39.56"
             style="fill:#a85eb6;fill-opacity:1;fill-rule:nonzero;stroke:none"
             id="path108"
             inkscape:connector-curvature="0" /><path
             d="m 2397.76,712.199 -0.01,0.012 47.79,47.789 v -0.02 l -47.78,-47.781"
             style="fill:#e62c83;fill-opacity:1;fill-rule:nonzero;stroke:none"
             id="path110"
             inkscape:connector-curvature="0" /><path
             d="m 2378.17,797.621 v 0.02 l 67.37,67.371 v -0.032 l -67.37,-67.359"
             style="fill:#e62c83;fill-opacity:1;fill-rule:nonzero;stroke:none"
             id="path112"
             inkscape:connector-curvature="0" /><path
             d="m 2098.42,1095.14 c -0.02,0 -0.03,0 -0.04,0.01 l 54.08,54.08 c 0.01,0 0.03,-0.01 0.03,-0.01 l -54.07,-54.08 m -368.92,365.9 0.05,0.16 64.56,64.55 0.05,-0.05 -64.66,-64.66"
             style="fill:#e62c83;fill-opacity:1;fill-rule:nonzero;stroke:none"
             id="path114"
             inkscape:connector-curvature="0" /><path
             d="m 4593.85,756.359 -0.02,0.032 48.57,48.578 0.02,-0.039 -48.57,-48.571"
             style="fill:#f57e95;fill-opacity:1;fill-rule:nonzero;stroke:none"
             id="path116"
             inkscape:connector-curvature="0" /><path
             d="m 4556.94,824.449 v 0.02 l 47.86,47.859 0.01,-0.008 -47.87,-47.871"
             style="fill:#f57e95;fill-opacity:1;fill-rule:nonzero;stroke:none"
             id="path118"
             inkscape:connector-curvature="0" /><path
             d="m 4615.99,883.52 54.91,54.91 c -0.01,-0.008 -0.02,-0.032 -0.02,-0.051 l -54.84,-54.828 c -0.02,-0.012 -0.03,-0.02 -0.05,-0.031"
             style="fill:#f57e95;fill-opacity:1;fill-rule:nonzero;stroke:none"
             id="path120"
             inkscape:connector-curvature="0" /><path
             d="m 4120.7,1175.5 c -0.06,0.02 -0.12,0.04 -0.17,0.06 l 25.03,25.03 c 0.08,0 0.16,0 0.23,0 l -25.09,-25.09 m 61.67,61.67 c 0.01,0.09 0.02,0.17 0.02,0.25 l 29.94,29.94 c 0.02,-0.06 0.04,-0.11 0.06,-0.17 l -30.02,-30.02"
             style="fill:#f57e95;fill-opacity:1;fill-rule:nonzero;stroke:none"
             id="path122"
             inkscape:connector-curvature="0" /><path
             d="m 3911.44,1438.58 c -0.01,0.01 -0.01,0.03 -0.02,0.04 l 51.34,51.35 c 0.01,-0.01 0.03,-0.03 0.04,-0.04 l -51.36,-51.35"
             style="fill:#f57e95;fill-opacity:1;fill-rule:nonzero;stroke:none"
             id="path124"
             inkscape:connector-curvature="0" /><path
             d="m 3619.45,674.238 h -0.21 l 34.71,34.711 v -0.211 l -34.5,-34.5"
             style="fill:#a8e1cf;fill-opacity:1;fill-rule:nonzero;stroke:none"
             id="path126"
             inkscape:connector-curvature="0" /><path
             d="m 3739.38,794.172 -0.09,0.129 46.61,46.609 0.09,-0.129 -46.61,-46.609"
             style="fill:#a8e1cf;fill-opacity:1;fill-rule:nonzero;stroke:none"
             id="path128"
             inkscape:connector-curvature="0" /><path
             d="m 3313.77,840.922 v 0.058 l 67.39,67.379 v -0.058 l -67.39,-67.379 m 272.8,272.788 v 0.06 l 39.8,39.8 h 0.07 l -39.87,-39.86"
             style="fill:#a8e1cf;fill-opacity:1;fill-rule:nonzero;stroke:none"
             id="path130"
             inkscape:connector-curvature="0" /><path
             d="m 2990.98,1305.43 v 0.02 l 67.33,67.32 v -0.01 l -67.33,-67.33"
             style="fill:#a8e1cf;fill-opacity:1;fill-rule:nonzero;stroke:none"
             id="path132"
             inkscape:connector-curvature="0" /><path
             d="m 3191.31,1505.79 44.83,44.82 v -0.02 l -44.81,-44.8 h -0.02"
             style="fill:#a8e1cf;fill-opacity:1;fill-rule:nonzero;stroke:none"
             id="path134"
             inkscape:connector-curvature="0" /><path
             d="m 2866.48,1285.93 h -0.01 l 54.18,54.18 v -0.01 l -54.17,-54.17"
             style="fill:#a8e1cf;fill-opacity:1;fill-rule:nonzero;stroke:none"
             id="path136"
             inkscape:connector-curvature="0" /><path
             d="m 2990.98,1410.43 v 0.01 l 67.33,67.33 v -0.02 l -67.33,-67.32"
             style="fill:#a8e1cf;fill-opacity:1;fill-rule:nonzero;stroke:none"
             id="path138"
             inkscape:connector-curvature="0" /><path
             d="m 2502.73,1499.45 -0.02,0.03 12.22,12.22 v -0.04 l -12.2,-12.21"
             style="fill:#a8e1cf;fill-opacity:1;fill-rule:nonzero;stroke:none"
             id="path140"
             inkscape:connector-curvature="0" /><path
             d="m 3082,1501.46 60.74,60.74 h 0.01 l -60.73,-60.74 H 3082"
             style="fill:#a8e1cf;fill-opacity:1;fill-rule:nonzero;stroke:none"
             id="path142"
             inkscape:connector-curvature="0" /><path
             d="m 2548.88,1545.61 -0.01,0.02 47.56,47.57 0.01,-0.03 -47.56,-47.56 m -98.17,111.78 v 0.15 l 83.34,83.34 0.04,-0.1 -83.38,-83.39"
             style="fill:#a8e1cf;fill-opacity:1;fill-rule:nonzero;stroke:none"
             id="path144"
             inkscape:connector-curvature="0" /><path
             d="m 2502.72,1499.45 -0.02,0.02 0.01,0.01 0.02,-0.03 h -0.01"
             style="fill:#4fadd8;fill-opacity:1;fill-rule:nonzero;stroke:none"
             id="path146"
             inkscape:connector-curvature="0" /><path
             d="m 2470.36,889.828 60.74,60.742 h 0.02 l -60.73,-60.742 h -0.03"
             style="fill:#6bcb92;fill-opacity:1;fill-rule:nonzero;stroke:none"
             id="path148"
             inkscape:connector-curvature="0" /><path
             d="m 2579.7,894.172 43.61,43.598 v -0.008 l -43.59,-43.59 h -0.02 m 153.14,153.118 v 0.01 l 58.52,58.52 h 0.01 l -58.53,-58.53 m 0,104.99 v 0.02 l 0.52,0.53 h 0.02 l -0.54,-0.55"
             style="fill:#6bcb92;fill-opacity:1;fill-rule:nonzero;stroke:none"
             id="path150"
             inkscape:connector-curvature="0" /><path
             d="m 2289.2,1285.93 h -0.03 l 59.5,59.51 h 0.04 l -59.51,-59.51"
             style="fill:#6bcb92;fill-opacity:1;fill-rule:nonzero;stroke:none"
             id="path152"
             inkscape:connector-curvature="0" /><path
             d="m 2120.54,1327.22 v 0.13 l 67.34,67.35 v -0.13 l -67.34,-67.35"
             style="fill:#6bcb92;fill-opacity:1;fill-rule:nonzero;stroke:none"
             id="path154"
             inkscape:connector-curvature="0" /><path
             d="m 1794.18,1525.71 -0.05,0.06 29.54,29.53 -0.05,-0.14 -29.44,-29.45"
             style="fill:#6bcb92;fill-opacity:1;fill-rule:nonzero;stroke:none"
             id="path156"
             inkscape:connector-curvature="0" /><path
             d="m 1892.76,1624.3 -0.02,0.08 49.47,49.47 0.03,-0.08 -49.48,-49.47"
             style="fill:#6bcb92;fill-opacity:1;fill-rule:nonzero;stroke:none"
             id="path158"
             inkscape:connector-curvature="0" /><path
             d="m 4406.73,674.238 h -0.02 l 51.03,51.032 v -0.02 l -51.01,-51.012"
             style="fill:#797a7c;fill-opacity:1;fill-rule:nonzero;stroke:none"
             id="path160"
             inkscape:connector-curvature="0" /><path
             d="m 3760.03,1287.17 c -0.02,0 -0.03,0.01 -0.05,0.01 l 50.73,50.73 c 0.02,0 0.04,0 0.06,0 l -50.74,-50.74 m -414.42,372.89 v 0.02 l 107.08,107.08 c 0.01,0 0.01,0 0.02,0 l -107.1,-107.1"
             style="fill:#797a7c;fill-opacity:1;fill-rule:nonzero;stroke:none"
             id="path162"
             inkscape:connector-curvature="0" /><path
             d="m 2397.7,712.16 -19.53,19.531 v 0.098 l 19.58,-19.578 -0.05,-0.051"
             style="fill:#72c8f1;fill-opacity:1;fill-rule:nonzero;stroke:none"
             id="path164"
             inkscape:connector-curvature="0" /><path
             d="m 2378.17,692.641 v 39.05 l 19.53,-19.531 -19.53,-19.519"
             style="fill:#3d53ad;fill-opacity:1;fill-rule:nonzero;stroke:none"
             id="path166"
             inkscape:connector-curvature="0" /><path
             d="m 2397.75,712.211 -19.58,19.578 v 65.832 l 67.37,67.359 V 760 l -47.79,-47.789"
             style="fill:#3f3786;fill-opacity:1;fill-rule:nonzero;stroke:none"
             id="path168"
             inkscape:connector-curvature="0" /><path
             d="m 2791.36,1105.82 -47.5,47.5 0.05,0.01 47.47,-47.48 -0.02,-0.03"
             style="fill:#72c8f1;fill-opacity:1;fill-rule:nonzero;stroke:none"
             id="path170"
             inkscape:connector-curvature="0" /><path
             d="m 2791.38,1105.85 -47.47,47.48 54.72,2.59 17.1,-25.73 -24.35,-24.34"
             style="fill:#568cd1;fill-opacity:1;fill-rule:nonzero;stroke:none"
             id="path172"
             inkscape:connector-curvature="0" /><path
             d="m 3236.14,1553.32 -12.45,12.45 0.05,0.01 12.4,-12.4 v -0.06"
             style="fill:#72c8f1;fill-opacity:1;fill-rule:nonzero;stroke:none"
             id="path174"
             inkscape:connector-curvature="0" /><path
             d="m 2920.65,1285.93 h -54.17 l 54.17,54.17 v -54.17"
             style="fill:#50add8;fill-opacity:1;fill-rule:nonzero;stroke:none"
             id="path176"
             inkscape:connector-curvature="0" /><path
             d="m 2990.98,1305.45 v 104.98 l 67.33,67.32 v -104.98 l -67.33,-67.32"
             style="fill:#50add8;fill-opacity:1;fill-rule:nonzero;stroke:none"
             id="path178"
             inkscape:connector-curvature="0" /><path
             d="m 3082.02,1501.46 60.73,60.74 80.94,3.57 12.45,-12.45 v -2.71 l -44.83,-44.82 -109.29,-4.33"
             style="fill:#50add8;fill-opacity:1;fill-rule:nonzero;stroke:none"
             id="path180"
             inkscape:connector-curvature="0" /><path
             d="m 2470.39,889.828 60.73,60.742 92.19,4.059 V 937.77 l -43.61,-43.598 -109.31,-4.344 m 262.45,157.472 v 104.98 l 0.54,0.55 10.48,0.49 47.5,-47.5 -58.52,-58.52"
             style="fill:#3c9c9d;fill-opacity:1;fill-rule:nonzero;stroke:none"
             id="path182"
             inkscape:connector-curvature="0" /><path
             d="m 3236.14,1553.38 -12.4,12.4 12.4,0.54 v -12.94 m 109.47,106.7 v 99.69 c 34.24,4.14 74.32,6.49 107.08,7.39 l -107.08,-107.08"
             style="fill:#305e81;fill-opacity:1;fill-rule:nonzero;stroke:none"
             id="path184"
             inkscape:connector-curvature="0" /><path
             d="m 1581.68,1003.27 -66.58,66.59 v 0.12 l 66.58,-66.59 v -0.12"
             style="fill:#a85eb6;fill-opacity:1;fill-rule:nonzero;stroke:none"
             id="path186"
             inkscape:connector-curvature="0" /><path
             d="m 1456.05,1128.91 -24.66,24.66 h 0.11 l 24.55,-24.55 v -0.11"
             style="fill:#a85eb6;fill-opacity:1;fill-rule:nonzero;stroke:none"
             id="path188"
             inkscape:connector-curvature="0" /><path
             d="m 1073.21,777.02 -13.87,13.871 0.06,0.05 13.83,-13.832 c 0,-0.027 -0.01,-0.07 -0.02,-0.089"
             style="fill:#a85eb6;fill-opacity:1;fill-rule:nonzero;stroke:none"
             id="path190"
             inkscape:connector-curvature="0" /><path
             d="m 2033.96,1285.93 h -0.04 l -49.9,49.9 -0.02,0.06 49.96,-49.96"
             style="fill:#a85eb6;fill-opacity:1;fill-rule:nonzero;stroke:none"
             id="path192"
             inkscape:connector-curvature="0" /><path
             d="m 1756.72,1353.16 -48.57,48.57 0.02,0.06 48.57,-48.57 -0.02,-0.06"
             style="fill:#a85eb6;fill-opacity:1;fill-rule:nonzero;stroke:none"
             id="path194"
             inkscape:connector-curvature="0" /><path
             d="m 1896.32,1423.53 -54.94,54.94 h 0.04 l 54.94,-54.94 h -0.04"
             style="fill:#a85eb6;fill-opacity:1;fill-rule:nonzero;stroke:none"
             id="path196"
             inkscape:connector-curvature="0" /><path
             d="m 1809.02,1510.84 -14.86,14.86 0.02,0.01 14.85,-14.85 -0.01,-0.02"
             style="fill:#a85eb6;fill-opacity:1;fill-rule:nonzero;stroke:none"
             id="path198"
             inkscape:connector-curvature="0" /><path
             d="m 2187.88,1709.29 -55.97,55.97 h 0.06 l 55.91,-55.91 v -0.06"
             style="fill:#a85eb6;fill-opacity:1;fill-rule:nonzero;stroke:none"
             id="path200"
             inkscape:connector-curvature="0" /><path
             d="m 936.715,668.262 122.625,122.629 13.87,-13.871 C 1062.1,712.609 1004.73,674.93 936.715,668.262"
             style="fill:#68297e;fill-opacity:1;fill-rule:nonzero;stroke:none"
             id="path202"
             inkscape:connector-curvature="0" /><path
             d="m 1317.37,674.238 h -67.4 v 307.274 l 67.4,67.398 V 674.238"
             style="fill:#3d53ad;fill-opacity:1;fill-rule:nonzero;stroke:none"
             id="path204"
             inkscape:connector-curvature="0" /><path
             d="m 1534.47,741.27 c -12.05,21.539 -19.37,49.07 -19.37,84.121 v 244.469 l 66.58,-66.59 v -155.93 0 c 0,-21.121 2,-38.621 5.74,-53.11 l -52.95,-52.96"
             style="fill:#3d53ad;fill-opacity:1;fill-rule:nonzero;stroke:none"
             id="path206"
             inkscape:connector-curvature="0" /><path
             d="m 1073.23,777.109 -13.83,13.832 15.62,15.629 c 0.09,-2.058 0.14,-4.14 0.14,-6.261 0,-8.079 -0.66,-15.809 -1.93,-23.2"
             style="fill:#3d53ad;fill-opacity:1;fill-rule:nonzero;stroke:none"
             id="path208"
             inkscape:connector-curvature="0" /><path
             d="m 1456.05,1094.84 h -92.75 l 58.73,58.73 h 9.36 l 24.66,-24.66 v -34.07"
             style="fill:#3d53ad;fill-opacity:1;fill-rule:nonzero;stroke:none"
             id="path210"
             inkscape:connector-curvature="0" /><path
             d="m 2187.88,1709.35 -55.91,55.91 h 55.91 v -55.91"
             style="fill:#3d53ad;fill-opacity:1;fill-rule:nonzero;stroke:none"
             id="path212"
             inkscape:connector-curvature="0" /><path
             d="m 1581.68,1003.39 -66.58,66.59 v 83.59 h 66.58 v -150.18"
             style="fill:#68297e;fill-opacity:1;fill-rule:nonzero;stroke:none"
             id="path214"
             inkscape:connector-curvature="0" /><path
             d="m 1811.94,1018.75 v 134.82 h 65 v -69.82 l -65,-65"
             style="fill:#68297e;fill-opacity:1;fill-rule:nonzero;stroke:none"
             id="path216"
             inkscape:connector-curvature="0" /><path
             d="m 1456.05,1129.02 -24.55,24.55 h 24.55 v -24.55"
             style="fill:#68297e;fill-opacity:1;fill-rule:nonzero;stroke:none"
             id="path218"
             inkscape:connector-curvature="0" /><path
             d="m 1734.58,1285.93 h -68.13 l 41.7,115.8 48.57,-48.57 -22.14,-67.23"
             style="fill:#68297e;fill-opacity:1;fill-rule:nonzero;stroke:none"
             id="path220"
             inkscape:connector-curvature="0" /><path
             d="m 1614.2,1285.93 h -59.81 l 59.81,59.81 v -59.81"
             style="fill:#68297e;fill-opacity:1;fill-rule:nonzero;stroke:none"
             id="path222"
             inkscape:connector-curvature="0" /><path
             d="m 2033.92,1285.93 h -33.83 l -16.07,49.9 49.9,-49.9"
             style="fill:#951859;fill-opacity:1;fill-rule:nonzero;stroke:none"
             id="path224"
             inkscape:connector-curvature="0" /><path
             d="m 1756.74,1353.22 -48.57,48.57 21.33,59.25 64.66,64.66 14.86,-14.86 -11.79,-34.6 44.15,2.23 54.94,-54.94 -118.66,-6.81 -20.92,-63.5"
             style="fill:#951859;fill-opacity:1;fill-rule:nonzero;stroke:none"
             id="path226"
             inkscape:connector-curvature="0" /><path
             d="m 2450.71,1657.54 v 106.95 l 72.05,3.11 11.29,-26.72 -83.34,-83.34"
             style="fill:#665998;fill-opacity:1;fill-rule:nonzero;stroke:none"
             id="path228"
             inkscape:connector-curvature="0" /><path
             d="m 2072.18,1285.93 h -38.22 l -49.96,49.96 -29.3,90.99 -58.34,-3.35 -54.94,54.94 95.25,4.82 -10.96,35.27 -32.95,105.74 49.48,49.47 129.94,-387.84"
             style="fill:#40526c;fill-opacity:1;fill-rule:nonzero;stroke:none"
             id="path230"
             inkscape:connector-curvature="0" /><path
             d="m 2120.54,1327.35 v 437.91 h 11.37 l 55.97,-55.97 V 1394.7 l -67.34,-67.35"
             style="fill:#40526c;fill-opacity:1;fill-rule:nonzero;stroke:none"
             id="path232"
             inkscape:connector-curvature="0" /><path
             d="m 1809.03,1510.86 -14.85,14.85 29.44,29.45 -12.25,-37.42 -2.34,-6.88"
             style="fill:#40526c;fill-opacity:1;fill-rule:nonzero;stroke:none"
             id="path234"
             inkscape:connector-curvature="0" /><path
             d="m 2017.16,1092.71 -58.16,58.16 c 0.03,0 0.06,0 0.09,0 l 58.15,-58.16 c -0.02,0 -0.05,0 -0.08,0"
             style="fill:#e62c83;fill-opacity:1;fill-rule:nonzero;stroke:none"
             id="path236"
             inkscape:connector-curvature="0" /><path
             d="m 1671.16,667.922 c -48.28,3.449 -106.87,20.098 -136.65,73.277 l 52.94,52.942 c 14.86,-57.43 57.15,-67.422 110.91,-67.422 12.36,0 23.93,0.929 34.6,3.011 l -61.8,-61.808"
             style="fill:#3f3786;fill-opacity:1;fill-rule:nonzero;stroke:none"
             id="path238"
             inkscape:connector-curvature="0" /><path
             d="m 2450.71,1447.48 v 103.97 l 51.99,-51.98 -51.99,-51.99"
             style="fill:#3f3786;fill-opacity:1;fill-rule:nonzero;stroke:none"
             id="path240"
             inkscape:connector-curvature="0" /><path
             d="m 1946.82,943.59 v 206.85 c 4.07,0.14 8.13,0.28 12.18,0.43 l 58.16,-58.16 c -0.98,-0.07 -1.97,-0.14 -2.97,-0.21 v -81.55 l -67.37,-67.36"
             style="fill:#951959;fill-opacity:1;fill-rule:nonzero;stroke:none"
             id="path242"
             inkscape:connector-curvature="0" /><path
             d="m 1807.2,803.969 c 3.11,13.742 4.74,29.679 4.74,48.062 v 166.599 l 65,65 V 873.699 l -69.74,-69.73"
             style="fill:#951959;fill-opacity:1;fill-rule:nonzero;stroke:none"
             id="path244"
             inkscape:connector-curvature="0" /><path
             d="m 2017.24,1092.71 -58.15,58.16 c 41.88,1.53 82.82,3.48 126.37,3.48 24.36,0 46.66,-1.73 67,-5.12 l -54.08,-54.08 c -6.48,0.31 -13.15,0.45 -19.99,0.45 -21.64,0 -40.43,-1.41 -61.15,-2.89"
             style="fill:#ce1842;fill-opacity:1;fill-rule:nonzero;stroke:none"
             id="path246"
             inkscape:connector-curvature="0" /><path
             d="m 2502.71,1499.48 -52,51.99 v 105.92 l 83.38,83.39 62.34,-147.58 -47.56,-47.57 -3.41,8.15 -32.87,90.08 2.34,-90.08 v -42.08 l -12.22,-12.22"
             style="fill:#8f316c;fill-opacity:1;fill-rule:nonzero;stroke:none"
             id="path248"
             inkscape:connector-curvature="0" /><path
             d="m 2502.7,1499.47 -51.99,51.98 v 0.02 l 52,-51.99 -0.01,-0.01"
             style="fill:#2a326c;fill-opacity:1;fill-rule:nonzero;stroke:none"
             id="path250"
             inkscape:connector-curvature="0" /><path
             d="m 2289.17,1285.93 h -168.63 v 41.29 l 67.34,67.35 v -49.13 h 160.79 l -59.5,-59.51"
             style="fill:#56324b;fill-opacity:1;fill-rule:nonzero;stroke:none"
             id="path252"
             inkscape:connector-curvature="0" /><path
             d="m 4032.76,756.699 -48.25,48.25 0.02,0.051 48.25,-48.25 -0.02,-0.051"
             style="fill:#f57e95;fill-opacity:1;fill-rule:nonzero;stroke:none"
             id="path254"
             inkscape:connector-curvature="0" /><path
             d="m 4457.74,803.852 -66.6,66.597 v 0.223 l 66.6,-66.602 v -0.218 m -237.69,237.698 -110.55,110.56 0.06,0.15 110.38,-110.39 0.11,-0.32"
             style="fill:#f57e95;fill-opacity:1;fill-rule:nonzero;stroke:none"
             id="path256"
             inkscape:connector-curvature="0" /><path
             d="m 4457.74,804.07 -66.6,66.602 v 277.418 c 45.41,5.48 101.03,7.83 136.27,7.83 115.91,0 158.96,-63.42 160.58,-146.45 -0.71,-27.2 -6.25,-50.771 -17.09,-71.04 l -54.91,-54.91 c -4.27,-2.508 -8.74,-4.911 -13.41,-7.211 v 0 0 l 2.22,-3.981 -47.86,-47.859 -16.21,29.902 c -24.28,-6.25 -52.48,-10.973 -82.99,-14.883 V 804.07 m 0,96.52 v 0 c 105.7,5.48 160.55,35.269 160.55,101.79 v 0 0 c 0,59.55 -32.95,94.81 -102.6,94.81 -16.45,0 -34.45,-0.8 -57.95,-3.15 v -193.45 0 m -237.8,141.28 -110.38,110.39 0.19,0.54 71.99,3.12 38.2,-114.05"
             style="fill:#f03d55;fill-opacity:1;fill-rule:nonzero;stroke:none"
             id="path258"
             inkscape:connector-curvature="0" /><path
             d="m 4144.93,1171.62 c -8.53,0 -16.69,1.34 -24.23,3.88 l 25.09,25.09 c 21.54,0.34 34.95,13.36 36.58,36.58 l 30.02,30.02 c 2.49,-7.56 3.83,-15.96 3.83,-25.09 0,-39.17 -31.35,-70.48 -71.29,-70.48"
             style="fill:#f03d55;fill-opacity:1;fill-rule:nonzero;stroke:none"
             id="path260"
             inkscape:connector-curvature="0" /><path
             d="m 3830.43,666.41 -91.05,127.762 46.61,46.609 118.84,-166.543 -74.4,-7.828"
             style="fill:#9d787b;fill-opacity:1;fill-rule:nonzero;stroke:none"
             id="path262"
             inkscape:connector-curvature="0" /><path
             d="m 4005.61,674.238 h -68.16 l 47.06,130.711 48.25,-48.25 -27.15,-82.461"
             style="fill:#9d787b;fill-opacity:1;fill-rule:nonzero;stroke:none"
             id="path264"
             inkscape:connector-curvature="0" /><path
             d="m 3653.95,674.238 h -34.5 l 34.5,34.5 v -34.5"
             style="fill:#9d787b;fill-opacity:1;fill-rule:nonzero;stroke:none"
             id="path266"
             inkscape:connector-curvature="0" /><path
             d="m 4406.71,674.238 h -15.57 v 196.211 l 66.6,-66.597 V 725.27 l -51.03,-51.032"
             style="fill:#773e45;fill-opacity:1;fill-rule:nonzero;stroke:none"
             id="path268"
             inkscape:connector-curvature="0" /><path
             d="m 4343.09,674.238 h -72.05 l -45.43,140.973 -176.93,-10.172 -15.9,-48.289 -48.25,48.25 124.97,347.11 110.55,-110.56 123.04,-367.312 m -202.05,411.192 -58.67,-179.36 -14.1,-41.519 139.33,7.051 -10.97,35.269 -55.59,178.559"
             style="fill:#773e45;fill-opacity:1;fill-rule:nonzero;stroke:none"
             id="path270"
             inkscape:connector-curvature="0" /><path
             d="m 4593.83,756.391 -36.89,68.058 47.87,47.871 37.59,-67.351 -48.57,-48.578"
             style="fill:#f0432a;fill-opacity:1;fill-rule:nonzero;stroke:none"
             id="path272"
             inkscape:connector-curvature="0" /><path
             d="m 4616.04,883.551 54.84,54.828 c -11.8,-22.027 -29.87,-40.168 -54.84,-54.828"
             style="fill:#f0432a;fill-opacity:1;fill-rule:nonzero;stroke:none"
             id="path274"
             inkscape:connector-curvature="0" /><path
             d="m 4457.74,674.238 h -51.01 l 51.01,51.012 v -51.012"
             style="fill:#784021;fill-opacity:1;fill-rule:nonzero;stroke:none"
             id="path276"
             inkscape:connector-curvature="0" /><path
             d="m 4641.76,667.949 -47.91,88.41 48.57,48.571 72.96,-130.692 -73.62,-6.289"
             style="fill:#8b3f41;fill-opacity:1;fill-rule:nonzero;stroke:none"
             id="path278"
             inkscape:connector-curvature="0" /><path
             d="m 2645.65,674.238 h -0.04 l -59.51,59.512 h 0.04 l 59.51,-59.512"
             style="fill:#a8e1cf;fill-opacity:1;fill-rule:nonzero;stroke:none"
             id="path280"
             inkscape:connector-curvature="0" /><path
             d="m 2435.72,674.238 h -0.1 l -37.91,37.91 0.05,0.051 37.96,-37.961"
             style="fill:#a8e1cf;fill-opacity:1;fill-rule:nonzero;stroke:none"
             id="path282"
             inkscape:connector-curvature="0" /><path
             d="m 3107.19,790 -64.71,64.711 v 0.039 l 64.71,-64.711 V 790 m -194.79,194.781 -121.03,121.039 0.02,0.02 120.92,-120.918 0.09,-0.141"
             style="fill:#a8e1cf;fill-opacity:1;fill-rule:nonzero;stroke:none"
             id="path284"
             inkscape:connector-curvature="0" /><path
             d="m 3412.17,1377.29 -66.56,66.56 v 0.06 l 66.56,-66.56 v -0.06"
             style="fill:#a8e1cf;fill-opacity:1;fill-rule:nonzero;stroke:none"
             id="path286"
             inkscape:connector-curvature="0" /><path
             d="m 3642.39,1619.25 -148.09,148.09 c 0.07,0 0.13,0 0.2,0 l 147.9,-147.9 c -0.01,-0.06 -0.01,-0.13 -0.01,-0.19"
             style="fill:#a8e1cf;fill-opacity:1;fill-rule:nonzero;stroke:none"
             id="path288"
             inkscape:connector-curvature="0" /><path
             d="m 3107.19,790.039 -64.71,64.711 -0.29,8.262 v 96.957 l 65,-65 v -104.93 m -194.88,194.883 -120.92,120.918 24.34,24.34 96.58,-145.258"
             style="fill:#4fadd8;fill-opacity:1;fill-rule:nonzero;stroke:none"
             id="path290"
             inkscape:connector-curvature="0" /><path
             d="m 2435.62,674.238 h -57.45 v 18.383 l 19.54,19.527 37.91,-37.91"
             style="fill:#655998;fill-opacity:1;fill-rule:nonzero;stroke:none"
             id="path292"
             inkscape:connector-curvature="0" /><path
             d="m 2645.61,674.238 h -209.89 l -37.96,37.961 47.78,47.781 v -26.23 h 140.56 l 59.51,-59.512"
             style="fill:#8e326c;fill-opacity:1;fill-rule:nonzero;stroke:none"
             id="path294"
             inkscape:connector-curvature="0" /><path
             d="m 3911.42,1438.62 c -16.33,28.32 -53.11,49.42 -87.69,70.52 -54.82,34.46 -109.64,68.14 -109.64,135.5 0,77.54 56.4,127.66 139.39,127.66 46.23,0 88.54,-7.81 130.04,-38.37 l -38.38,-52.46 c -25.86,24.25 -53.26,32.87 -89.31,32.87 -44.61,0 -72.84,-22.7 -72.84,-60.31 v 0 0 c 0,-38.38 39.96,-63.46 80.69,-89.29 35.82,-21.68 74.2,-43.36 99.08,-74.77 l -51.34,-51.35"
             style="fill:#9d797a;fill-opacity:1;fill-rule:nonzero;stroke:none"
             id="path296"
             inkscape:connector-curvature="0" /><path
             d="m 3642.4,1619.44 -147.9,147.9 c 106.44,-4.48 146.42,-66.25 147.95,-146.19 -0.02,-0.57 -0.04,-1.15 -0.05,-1.71"
             style="fill:#9d797a;fill-opacity:1;fill-rule:nonzero;stroke:none"
             id="path298"
             inkscape:connector-curvature="0" /><path
             d="m 3313.77,840.98 v 253.86 H 3171.7 v 58.73 h 350.71 v -58.73 H 3381.16 V 908.359 l -67.39,-67.379"
             style="fill:#6cc6ab;fill-opacity:1;fill-rule:nonzero;stroke:none"
             id="path300"
             inkscape:connector-curvature="0" /><path
             d="m 3107.19,894.988 -65,65 v 193.582 h 65 V 894.988 m 479.38,218.782 v 39.8 h 39.8 l -39.8,-39.8"
             style="fill:#6cc6ab;fill-opacity:1;fill-rule:nonzero;stroke:none"
             id="path302"
             inkscape:connector-curvature="0" /><path
             d="m 3412.17,1285.93 h -66.56 v 157.92 l 66.56,-66.56 v -91.36"
             style="fill:#6cc6ab;fill-opacity:1;fill-rule:nonzero;stroke:none"
             id="path304"
             inkscape:connector-curvature="0" /><path
             d="m 3284.69,1285.93 h -293.71 v 19.5 l 67.33,67.33 v -27.32 h 226.38 v -59.51"
             style="fill:#6cc6ab;fill-opacity:1;fill-rule:nonzero;stroke:none"
             id="path306"
             inkscape:connector-curvature="0" /><path
             d="m 3191.33,1505.79 44.81,44.8 v -43.03 l -44.81,-1.77"
             style="fill:#6cc6ab;fill-opacity:1;fill-rule:nonzero;stroke:none"
             id="path308"
             inkscape:connector-curvature="0" /><path
             d="m 3107.19,894.969 -65,65 v 0.019 l 65,-65 v -0.019"
             style="fill:#3e94b3;fill-opacity:1;fill-rule:nonzero;stroke:none"
             id="path310"
             inkscape:connector-curvature="0" /><path
             d="m 3043.75,670.309 -197.36,296.082 -53.24,87.709 4.69,-90.061 V 674.238 h -65 v 373.052 l 58.53,58.53 121.03,-121.039 83.57,-125.703 49.35,-85.367 -2.84,81 L 3107.19,790 V 675.02 l -63.44,-4.711"
             style="fill:#48b07a;fill-opacity:1;fill-rule:nonzero;stroke:none"
             id="path312"
             inkscape:connector-curvature="0" /><path
             d="m 2671.87,674.238 h -26.22 l -59.51,59.512 h 85.73 v -59.512"
             style="fill:#48b07a;fill-opacity:1;fill-rule:nonzero;stroke:none"
             id="path314"
             inkscape:connector-curvature="0" /><path
             d="m 2579.72,894.172 43.59,43.59 v -41.864 l -43.59,-1.726"
             style="fill:#48b07a;fill-opacity:1;fill-rule:nonzero;stroke:none"
             id="path316"
             inkscape:connector-curvature="0" /><path
             d="m 3596.24,1279.65 -101.04,186.41 c -24.3,-6.26 -52.48,-10.96 -83.03,-14.88 v -73.83 l -66.56,66.56 v 216.15 l 107.1,107.1 c 10.65,0.3 20.54,0.44 29.19,0.44 4.23,0 8.37,-0.09 12.4,-0.26 l 148.09,-148.09 c -2.08,-60.85 -28.71,-103.36 -85.33,-131.26 v 0 0 l 112.81,-202.06 -73.63,-6.28 m -184.07,232.62 v 0 c 105.74,5.47 160.59,35.25 160.59,101.83 v 0 0 c 0,59.53 -32.93,94.74 -102.64,94.74 -16.44,0 -34.45,-0.75 -57.95,-3.12 v -193.45 0"
             style="fill:#4c6a66;fill-opacity:1;fill-rule:nonzero;stroke:none"
             id="path318"
             inkscape:connector-curvature="0" /><path
             d="m 3759.98,1287.18 c -21.74,5.9 -42.71,15.43 -62.36,30.07 l 35.24,53.28 c 25.24,-20.95 51.44,-29.79 77.85,-32.62 l -50.73,-50.73"
             style="fill:#4c6a66;fill-opacity:1;fill-rule:nonzero;stroke:none"
             id="path320"
             inkscape:connector-curvature="0" /><path
             d="m 1849.72,735.23 -48.69,48.68 c 0.01,0.039 0.03,0.07 0.04,0.102 l 48.7,-48.703 c -0.02,-0.028 -0.04,-0.059 -0.05,-0.079"
             style="fill:#6bcb92;fill-opacity:1;fill-rule:nonzero;stroke:none"
             id="path322"
             inkscape:connector-curvature="0" /><path
             d="m 2307.6,802.262 -55.22,55.226 c 0,0.024 0.01,0.051 0.01,0.082 l 55.24,-55.242 c -0.01,-0.019 -0.02,-0.047 -0.03,-0.066"
             style="fill:#6bcb92;fill-opacity:1;fill-rule:nonzero;stroke:none"
             id="path324"
             inkscape:connector-curvature="0" /><path
             d="m 2445.54,874.309 -67.37,67.371 v 0.039 l 67.37,-67.367 v -0.043 m -126.72,126.721 -143.49,143.5 c 0.01,-0.01 0.03,-0.01 0.05,-0.02 l 143.42,-143.42 c 0.01,-0.03 0.01,-0.03 0.02,-0.06"
             style="fill:#6bcb92;fill-opacity:1;fill-rule:nonzero;stroke:none"
             id="path326"
             inkscape:connector-curvature="0" /><path
             d="m 2514.93,1382.25 -64.22,64.21 v 0.06 l 64.22,-64.22 v -0.05"
             style="fill:#6bcb92;fill-opacity:1;fill-rule:nonzero;stroke:none"
             id="path328"
             inkscape:connector-curvature="0" /><path
             d="m 3083,1706.51 h -0.05 l -58.75,58.75 h 0.05 l 58.75,-58.75"
             style="fill:#6bcb92;fill-opacity:1;fill-rule:nonzero;stroke:none"
             id="path330"
             inkscape:connector-curvature="0" /><path
             d="m 1692.11,667.191 c -6.65,0 -13.66,0.219 -20.91,0.731 l 61.81,61.816 c 31.49,6.153 55.16,22.321 68.02,54.172 l 48.69,-48.68 c -37.33,-53.089 -105.68,-68.039 -157.61,-68.039"
             style="fill:#3c9c9d;fill-opacity:1;fill-rule:nonzero;stroke:none"
             id="path332"
             inkscape:connector-curvature="0" /><path
             d="m 2659.81,1280.44 -44.53,106.44 100.93,-100.92 -0.01,-0.03 -56.39,-5.49"
             style="fill:#3c9c9d;fill-opacity:1;fill-rule:nonzero;stroke:none"
             id="path334"
             inkscape:connector-curvature="0" /><path
             d="m 2514.93,1382.3 -64.22,64.22 v 0.92 l 52.01,52.01 12.21,-12.22 V 1382.3"
             style="fill:#3c9c9d;fill-opacity:1;fill-rule:nonzero;stroke:none"
             id="path336"
             inkscape:connector-curvature="0" /><path
             d="m 2086.24,674.238 h -139.42 v 269.313 l 67.37,67.369 V 733.75 h 75.18 c 104.46,0 149.56,47.602 163.01,123.738 l 55.22,-55.226 c -29.02,-77.41 -94.77,-128.024 -221.36,-128.024"
             style="fill:#40526c;fill-opacity:1;fill-rule:nonzero;stroke:none"
             id="path338"
             inkscape:connector-curvature="0" /><path
             d="m 1849.77,735.309 -48.7,48.703 c 2.44,6.058 4.49,12.679 6.12,19.91 l 69.75,69.75 V 831.66 c 0,-41.148 -10.48,-72.57 -27.17,-96.351"
             style="fill:#40526c;fill-opacity:1;fill-rule:nonzero;stroke:none"
             id="path340"
             inkscape:connector-curvature="0" /><path
             d="M 2378.17,797.641 V 941.68 l 67.37,-67.371 v -9.297 l -67.37,-67.371"
             style="fill:#55334c;fill-opacity:1;fill-rule:nonzero;stroke:none"
             id="path342"
             inkscape:connector-curvature="0" /><path
             d="m 2307.63,802.328 -55.24,55.242 c 3.19,18.039 4.59,37.692 4.59,58.68 v 0 0 c 0,128.9 -56.12,173.98 -158.56,178.89 l 54.07,54.08 c 7.91,-1.32 15.52,-2.88 22.84,-4.69 l 143.49,-143.5 c 5.32,-22.921 7.87,-48.132 7.87,-75.389 0,-45.313 -5.54,-87.219 -19.06,-123.313"
             style="fill:#55334c;fill-opacity:1;fill-rule:nonzero;stroke:none"
             id="path344"
             inkscape:connector-curvature="0" /><path
             d="m 2866.47,1285.93 h -10.05 v 273.36 l 2.34,90.06 -33.67,-92.43 -108.88,-270.95 -100.94,100.94 -66.39,158.7 47.56,47.56 64.94,-153.74 27.43,-76.76 26.62,78.32 134.74,326.61 70.48,-3.11 v -424.38 l -54.18,-54.18"
             style="fill:#49af7a;fill-opacity:1;fill-rule:nonzero;stroke:none"
             id="path346"
             inkscape:connector-curvature="0" /><path
             d="m 2990.98,1410.44 v 354.82 h 33.22 l 58.75,-58.75 h -24.64 v -148.03 l 84.43,3.72 -60.74,-60.74 -23.69,-0.93 v -22.76 l -67.33,-67.33"
             style="fill:#49af7a;fill-opacity:1;fill-rule:nonzero;stroke:none"
             id="path348"
             inkscape:connector-curvature="0" /><path
             d="m 2514.93,1487.25 -12.2,12.2 12.2,12.21 v -24.41"
             style="fill:#49af7a;fill-opacity:1;fill-rule:nonzero;stroke:none"
             id="path350"
             inkscape:connector-curvature="0" /><path
             d="m 2716.21,1285.96 -100.93,100.92 -0.01,0.03 100.94,-100.94 v -0.01"
             style="fill:#318582;fill-opacity:1;fill-rule:nonzero;stroke:none"
             id="path352"
             inkscape:connector-curvature="0" /><path
             d="m 2514.93,1487.23 -12.21,12.22 h 0.01 l 12.2,-12.2 v -0.02"
             style="fill:#318582;fill-opacity:1;fill-rule:nonzero;stroke:none"
             id="path354"
             inkscape:connector-curvature="0" /><path
             d="m 2445.54,874.352 -67.37,67.367 v 211.851 h 281.19 v -58.73 H 2445.54 V 946.801 l 85.56,3.769 -60.74,-60.742 -24.82,-0.976 v -14.5 m -126.74,126.738 -143.42,143.42 c 81.03,-20.08 126.4,-70.15 143.42,-143.42 m 414.04,151.21 v 0.5 l 0.52,0.03 -0.52,-0.53"
             style="fill:#369d5b;fill-opacity:1;fill-rule:nonzero;stroke:none"
             id="path356"
             inkscape:connector-curvature="0" /><path
             d="m 2514.93,1285.93 h -64.22 v 160.53 l 64.22,-64.21 v -96.32"
             style="fill:#369d5b;fill-opacity:1;fill-rule:nonzero;stroke:none"
             id="path358"
             inkscape:connector-curvature="0" /><path
             d="M 2392.31,1285.93 H 2289.2 l 59.51,59.51 h 43.6 v -59.51"
             style="fill:#369d5b;fill-opacity:1;fill-rule:nonzero;stroke:none"
             id="path360"
             inkscape:connector-curvature="0" /><path
             d="M 3272.15,1706.51 H 3083 l -58.75,58.75 h 247.9 v -58.75"
             style="fill:#335f49;fill-opacity:1;fill-rule:nonzero;stroke:none"
             id="path362"
             inkscape:connector-curvature="0" /><path
             d="M 1059.28,790.949 800.402,1049.83 c 0.004,0.04 0.008,0.08 0.012,0.11 L 1059.34,791 l -0.06,-0.051 m 239.87,494.981 h -0.11 l -39.62,39.62 v 0.11 l 39.73,-39.73"
             style="fill:#72c8f1;fill-opacity:1;fill-rule:nonzero;stroke:none"
             id="path364"
             inkscape:connector-curvature="0" /><path
             d="m 1614.2,1495.68 -68.99,68.99 h 0.07 l 68.92,-68.92 v -0.07 m 179.91,30.07 -30.38,30.37 0.01,0.03 30.39,-30.38 -0.02,-0.02"
             style="fill:#72c8f1;fill-opacity:1;fill-rule:nonzero;stroke:none"
             id="path366"
             inkscape:connector-curvature="0" /><path
             d="m 1614.2,1705.65 -59.61,59.61 h 0.04 l 59.57,-59.57 v -0.04"
             style="fill:#72c8f1;fill-opacity:1;fill-rule:nonzero;stroke:none"
             id="path368"
             inkscape:connector-curvature="0" /><path
             d="m 914.59,667.191 c -46.219,0 -91.629,8.61 -131.582,38.379 l 35.262,53.239 c 32.109,-26.618 65.773,-33.668 99.457,-33.668 46.218,0 87.723,28.199 87.723,70.48 v 0 0 c 0,45.449 -50.137,73.641 -96.329,101.82 -54.844,34.469 -109.648,68.161 -109.648,135.509 0,5.78 0.312,11.41 0.929,16.88 L 1059.28,790.949 936.578,668.25 c -7.223,-0.711 -14.566,-1.059 -21.988,-1.059"
             style="fill:#3d53ad;fill-opacity:1;fill-rule:nonzero;stroke:none"
             id="path370"
             inkscape:connector-curvature="0" /><path
             d="m 1059.34,791 -258.926,258.94 c 7.676,67.8 61.668,110.69 138.445,110.69 46.231,0 88.501,-7.83 130.031,-38.4 l -38.38,-52.45 c -25.85,24.26 -53.252,32.89 -89.28,32.89 -44.648,0 -72.859,-22.73 -72.859,-60.33 v 0 0 c 0,-38.36 39.961,-63.449 80.699,-89.27 57.93,-35.058 122.54,-70.14 125.95,-146.39 L 1059.34,791"
             style="fill:#568cd1;fill-opacity:1;fill-rule:nonzero;stroke:none"
             id="path372"
             inkscape:connector-curvature="0" /><path
             d="m 1249.97,981.621 v 113.219 h -139.48 v 58.73 h 311.43 l -58.73,-58.73 h -45.82 v -45.82 l -67.4,-67.399"
             style="fill:#568cd1;fill-opacity:1;fill-rule:nonzero;stroke:none"
             id="path374"
             inkscape:connector-curvature="0" /><path
             d="m 1037.3,1278.86 c -70.573,0 -123.913,21.64 -158.948,65.78 l 51.023,51.03 c 24.633,-38.36 63.691,-57.27 115.765,-57.27 36.84,0 76.76,13.29 111.99,36.8 l 31.33,-50.12 c -35.99,-27.42 -97.11,-46.22 -151.16,-46.22"
             style="fill:#568cd1;fill-opacity:1;fill-rule:nonzero;stroke:none"
             id="path376"
             inkscape:connector-curvature="0" /><path
             d="m 1299.04,1285.93 h -39.62 v 39.62 l 39.62,-39.62"
             style="fill:#568cd1;fill-opacity:1;fill-rule:nonzero;stroke:none"
             id="path378"
             inkscape:connector-curvature="0" /><path
             d="m 1554.28,1285.93 h -7.42 v 219.28 l -220.1,-7.8 v -211.48 h -27.61 l -39.73,39.73 v 400.04 l 39.57,39.56 h 27.77 v -209.92 l 218.45,9.33 68.99,-68.99 v -149.83 l -59.92,-59.92"
             style="fill:#3d53ad;fill-opacity:1;fill-rule:nonzero;stroke:none"
             id="path380"
             inkscape:connector-curvature="0" /><path
             d="m 1729.55,1461.2 34.18,94.92 30.38,-30.37 -64.56,-64.55"
             style="fill:#3f3786;fill-opacity:1;fill-rule:nonzero;stroke:none"
             id="path382"
             inkscape:connector-curvature="0" /><path
             d="m 1614.2,1495.75 -68.92,68.92 1.58,0.07 v 200.52 h 7.73 l 59.61,-59.61 v -209.9"
             style="fill:#3f3786;fill-opacity:1;fill-rule:nonzero;stroke:none"
             id="path384"
             inkscape:connector-curvature="0" /><path
             d="m 1794.13,1525.77 -30.39,30.38 75.02,208.34 72.05,3.11 31.4,-93.75 -49.47,-49.47 -22.66,72.73 -46.41,-141.81 -29.54,-29.53"
             style="fill:#3c9c9d;fill-opacity:1;fill-rule:nonzero;stroke:none"
             id="path386"
             inkscape:connector-curvature="0" /><path
             d="m 1614.2,1705.69 -59.57,59.57 h 59.57 v -59.57"
             style="fill:#3c9c9d;fill-opacity:1;fill-rule:nonzero;stroke:none"
             id="path388"
             inkscape:connector-curvature="0" /><path
             d="m 3787.86,1001.6 -41.72,41.72 0.03,0.04 41.72,-41.72 -0.03,-0.04"
             style="fill:#797a7c;fill-opacity:1;fill-rule:nonzero;stroke:none"
             id="path390"
             inkscape:connector-curvature="0" /><path
             d="m 3653.95,1135.51 -18.06,18.06 h 0.06 l 18,-18 v -0.06"
             style="fill:#797a7c;fill-opacity:1;fill-rule:nonzero;stroke:none"
             id="path392"
             inkscape:connector-curvature="0" /><path
             d="m 3945.4,1316.22 -45.45,45.46 c 0.03,0.03 0.06,0.06 0.1,0.1 l 45.46,-45.47 c -0.03,-0.03 -0.07,-0.06 -0.11,-0.09"
             style="fill:#797a7c;fill-opacity:1;fill-rule:nonzero;stroke:none"
             id="path394"
             inkscape:connector-curvature="0" /><path
             d="m 3327.92,674.238 h -14.15 v 14.153 l 14.15,-14.153"
             style="fill:#305e81;fill-opacity:1;fill-rule:nonzero;stroke:none"
             id="path396"
             inkscape:connector-curvature="0" /><path
             d="m 4120.53,1175.56 c -26.94,9.13 -45.99,33.53 -45.99,66.54 0,41.51 32.87,69.7 71.97,69.7 31.41,0 56.52,-16.46 65.82,-44.44 l -29.94,-29.94 c 0.1,1.52 0.15,3.08 0.15,4.68 v 0 0 c 0,25.84 -14.9,40.73 -37.61,40.73 -23.44,0 -38.32,-14.89 -38.32,-40.73 v 0 0 c 0,-27.41 16.42,-41.52 38.32,-41.52 0.21,0 0.42,0.01 0.63,0.01 l -25.03,-25.03"
             style="fill:#773e45;fill-opacity:1;fill-rule:nonzero;stroke:none"
             id="path398"
             inkscape:connector-curvature="0" /><path
             d="m 3945.51,1316.31 -45.46,45.47 c 12.38,11.84 20.03,27.4 20.03,45.55 v 0 0 c 0,11.41 -3.16,21.74 -8.64,31.25 l 51.36,51.35 c 16.45,-20.78 26.99,-45.81 26.99,-77.92 0,-41.09 -17.11,-73.27 -44.28,-95.7"
             style="fill:#773e45;fill-opacity:1;fill-rule:nonzero;stroke:none"
             id="path400"
             inkscape:connector-curvature="0" /><path
             d="m 3619.24,674.238 h -32.67 v 439.472 l 39.87,39.86 h 9.45 l 18.06,-18.06 V 708.949 l -34.71,-34.711"
             style="fill:#4c6a66;fill-opacity:1;fill-rule:nonzero;stroke:none"
             id="path402"
             inkscape:connector-curvature="0" /><path
             d="m 3381.16,674.238 h -53.22 l -14.17,14.16 v 152.524 l 67.39,67.379 V 674.238"
             style="fill:#4c6a66;fill-opacity:1;fill-rule:nonzero;stroke:none"
             id="path404"
             inkscape:connector-curvature="0" /><path
             d="m 3739.29,794.301 -83.56,117.258 90.41,131.761 41.72,-41.72 -58.5,-81.44 56.54,-79.25 -46.61,-46.609"
             style="fill:#4c6a66;fill-opacity:1;fill-rule:nonzero;stroke:none"
             id="path406"
             inkscape:connector-curvature="0" /><path
             d="m 3327.94,674.238 h -0.02 l -14.15,14.153 v 0.007 l 14.17,-14.16"
             style="fill:#26516a;fill-opacity:1;fill-rule:nonzero;stroke:none"
             id="path408"
             inkscape:connector-curvature="0" /><path
             d="m 3787.89,1001.64 -41.72,41.72 75.63,110.21 h 75.22 l -109.13,-151.93"
             style="fill:#39393a;fill-opacity:1;fill-rule:nonzero;stroke:none"
             id="path410"
             inkscape:connector-curvature="0" /><path
             d="m 3653.95,1135.57 -18,18 h 18 v -18"
             style="fill:#39393a;fill-opacity:1;fill-rule:nonzero;stroke:none"
             id="path412"
             inkscape:connector-curvature="0" /><path
             d="m 3829.2,1278.86 c -23.46,0 -46.72,2.22 -69.17,8.31 l 50.74,50.74 c 7.18,-0.77 14.37,-1.09 21.56,-1.09 26.33,0 51.14,9.16 67.62,24.86 l 45.45,-45.46 c -29.77,-24.53 -71.59,-37.36 -116.2,-37.36"
             style="fill:#39393a;fill-opacity:1;fill-rule:nonzero;stroke:none"
             id="path414"
             inkscape:connector-curvature="0" /><path
             d="m 930.27,1654.71 -45.262,45.27 c 0.012,0.02 0.023,0.04 0.039,0.05 l 45.262,-45.26 c -0.012,-0.02 -0.028,-0.04 -0.039,-0.06"
             style="fill:#a85eb6;fill-opacity:1;fill-rule:nonzero;stroke:none"
             id="path416"
             inkscape:connector-curvature="0" /><path
             d="m 878.297,1344.71 c -32.582,41.1 -49.313,101.68 -49.313,182.44 0,65.22 18.575,127.41 56.024,172.83 l 45.262,-45.27 c -20.95,-31.47 -31.579,-74.35 -31.579,-125.2 v 0 0 c 0,-57.83 10.477,-102.33 30.637,-133.77 l -51.031,-51.03"
             style="fill:#3d53ad;fill-opacity:1;fill-rule:nonzero;stroke:none"
             id="path418"
             inkscape:connector-curvature="0" /><path
             d="m 930.309,1654.77 -45.262,45.26 c 36.312,44.02 90.359,72.27 162.433,72.27 68.15,0 115.16,-20.37 144.91,-46.2 l -40.73,-54.05 c -27.4,28.97 -59.51,40.74 -105.74,40.74 -52.369,0 -91.065,-21.18 -115.611,-58.02 m 329.111,71.07 v 39.42 h 39.43 l -39.43,-39.42"
             style="fill:#68297e;fill-opacity:1;fill-rule:nonzero;stroke:none"
             id="path420"
             inkscape:connector-curvature="0" /></g></g></g><text
       xml:space="preserve"
       style="font-style:normal;font-weight:normal;font-size:30px;line-height:1.25;font-family:sans-serif;letter-spacing:0px;word-spacing:0px;fill:#000000;fill-opacity:1;stroke:none;stroke-width:0.75"
       x="-34.966389"
       y="-85.053375"
       id="text424"
       transform="scale(1,-1)"><tspan
         sodipodi:role="line"
         id="tspan422"
         x="-34.966389"
         y="-58.510406"
         style="stroke-width:0.75"></tspan></text>
<text
       xml:space="preserve"
       style="font-style:normal;font-weight:normal;font-size:30px;line-height:1.25;font-family:sans-serif;letter-spacing:0px;word-spacing:0px;fill:#999999;fill-opacity:1;stroke:none;stroke-width:0.75"
       x="-187.23933"
       y="-66.734879"
       id="text447"
       transform="scale(1,-1)"><tspan
         sodipodi:role="line"
         id="tspan445"
         x="-187.23933"
         y="-66.734879"
         style="font-size:48px;fill:#999999;stroke-width:0.75">En del av</tspan></text>
</g></svg>